<?xml version="1.0" standalone="no"?>
<!DOCTYPE svg PUBLIC "-//W3C//DTD SVG 20010904//EN"
 "http://www.w3.org/TR/2001/REC-SVG-20010904/DTD/svg10.dtd">
<svg version="1.0" xmlns="http://www.w3.org/2000/svg"
 width="260.000000pt" height="260.000000pt" viewBox="0 0 260.000000 260.000000"
 preserveAspectRatio="xMidYMid meet">
<metadata>
Created by potrace 1.14, written by Peter Selinger 2001-2017
</metadata>
<g transform="translate(0.000000,260.000000) scale(0.100000,-0.100000)"
fill="#000000" stroke="none">
<path d="M664 1573 l1 -1028 380 1 c424 0 448 3 580 69 156 78 265 207 325
381 19 54 20 87 20 576 0 499 -1 521 -21 581 -75 223 -270 393 -499 436 -30 5
-220 10 -421 11 l-367 0 2 -1027z m857 926 c149 -58 248 -143 316 -274 82
-160 90 -221 88 -686 -2 -444 -9 -486 -107 -657 l-30 -53 -46 43 c-26 23 -49
46 -51 51 -2 4 11 35 28 67 65 121 71 171 71 579 0 405 -6 457 -60 568 -58
118 -167 210 -290 244 -41 11 -536 22 -565 12 -11 -4 -12 -1420 -1 -1431 4 -3
116 -5 250 -5 223 1 247 2 289 21 82 36 146 126 165 230 5 29 8 206 7 394 -2
332 -3 345 -25 403 -29 74 -106 155 -166 173 -23 7 -93 12 -156 12 l-114 0
-55 53 c-93 91 -103 83 109 84 201 1 264 -9 337 -52 112 -65 185 -191 202
-350 10 -85 8 -672 -2 -734 -24 -156 -107 -275 -233 -334 l-67 -32 -342 -3
-343 -3 0 856 0 856 363 -3 c360 -3 362 -4 428 -29z m-447 -907 c0 -298 -1
-548 -4 -555 -3 -8 -27 -12 -67 -12 -56 0 -63 2 -64 20 -3 72 -4 1202 -1 1213
3 7 32 -17 69 -55 l66 -68 1 -543z m296 518 c50 -15 87 -52 118 -117 l26 -58
2 -339 c2 -345 -3 -404 -38 -471 -40 -76 -100 -101 -238 -100 l-95 0 -1 548
-1 547 96 0 c53 0 112 -5 131 -10z m327 -1367 c-57 -46 -169 -98 -242 -114
-41 -9 -166 -13 -392 -14 l-333 -2 0 69 0 68 315 0 c173 0 318 1 323 2 4 1 26
5 49 9 57 11 140 50 183 87 l35 31 52 -51 52 -51 -42 -34z"/>
<path d="M998 401 c-13 -5 -15 -26 -14 -151 1 -132 4 -149 24 -182 36 -58 110
-75 169 -38 50 30 60 66 60 223 1 118 -1 138 -16 145 -9 4 -23 7 -31 6 -8 -1
-21 -2 -27 -3 -10 -1 -13 -35 -13 -133 0 -73 -4 -138 -8 -144 -4 -6 -16 -14
-27 -18 -34 -10 -42 20 -42 157 0 70 -3 130 -6 133 -8 9 -51 11 -69 5z"/>
<path d="M1815 400 c-31 -12 -62 -51 -72 -90 -14 -57 -8 -192 12 -233 18 -38
65 -67 110 -67 40 0 94 29 100 54 3 11 4 84 3 161 l-3 139 -32 21 c-32 23 -84
29 -118 15z m86 -133 c4 -128 -3 -167 -30 -167 -33 0 -41 22 -41 112 0 72 3
89 17 97 27 15 53 -5 54 -42z"/>
<path d="M663 208 l2 -193 82 2 c134 2 165 40 165 198 -1 146 -37 185 -175
185 l-76 0 2 -192z m147 87 c12 -15 16 -132 4 -167 -3 -12 -15 -18 -34 -18
l-29 0 1 93 c0 50 2 95 5 100 7 12 40 8 53 -8z"/>
<path d="M1329 358 c-2 -154 0 -329 5 -336 3 -5 15 -8 28 -6 13 1 30 3 39 3
13 1 16 14 18 68 1 37 3 69 6 71 2 2 11 -12 20 -32 24 -51 55 -49 87 6 l25 41
0 -73 c0 -76 7 -88 46 -84 12 1 28 3 35 3 9 1 12 46 12 191 l0 190 -33 0 c-32
0 -36 -5 -78 -80 -24 -44 -47 -80 -50 -80 -3 0 -25 36 -50 80 -41 74 -46 80
-76 80 -32 0 -33 -1 -34 -42z"/>
</g>
</svg>
