<svg width="35" height="65" viewBox="0 0 35 65" fill="none" xmlns="http://www.w3.org/2000/svg">
<path d="M6.65801 56.6611C6.91329 57.2082 7.05917 57.7917 7.05917 58.5211V61.0739C7.05917 61.7669 6.91329 62.3868 6.65801 62.9339C6.40272 63.4809 6.00156 63.8821 5.52745 64.1738C5.05335 64.4656 4.46984 64.6115 3.84986 64.6115H0.822906V55.02H3.84986C4.46984 55.02 5.05335 55.1659 5.52745 55.4577C6.00156 55.7129 6.40272 56.1141 6.65801 56.6611ZM4.79807 61.0375V58.4846C4.79807 58.0834 4.72513 57.7917 4.54278 57.5729C4.36044 57.3541 4.14162 57.2082 3.84986 57.2082H3.04754V62.3139H3.84986C4.14162 62.3139 4.36044 62.2045 4.54278 61.9492C4.72513 61.7304 4.79807 61.4386 4.79807 61.0375Z" fill="#D9B04D"/>
<path d="M13.7331 64.2834C13.259 64.5752 12.6755 64.7211 12.0555 64.7211C11.4355 64.7211 10.852 64.5752 10.3779 64.2834C9.9038 63.9917 9.53911 63.5905 9.24735 63.0435C8.99207 62.5329 8.84619 61.9129 8.84619 61.1835V54.9473H11.0708V61.1835C11.0708 61.5847 11.1438 61.8764 11.3261 62.0953C11.5085 62.3141 11.7273 62.4235 12.019 62.4235C12.3108 62.4235 12.5296 62.3141 12.7119 62.0953C12.8943 61.8764 12.9672 61.5482 12.9672 61.1835V54.9473H15.1919V61.1835C15.1919 61.8764 15.046 62.4964 14.7907 63.0435C14.6084 63.5905 14.2437 63.9917 13.7331 64.2834Z" fill="#D9B04D"/>
<path d="M23.1786 64.5748V60.5997L21.9751 62.7514H20.8811L19.6776 60.5997V64.5748H17.4529V54.9834H19.0576L21.4646 59.2138L23.8716 54.9834H25.4762V64.5748H23.1786Z" fill="#D9B04D"/>
<path d="M33.6818 56.4789C33.9371 57.0259 34.083 57.6459 34.083 58.3388V61.2199C34.083 61.9128 33.9371 62.5328 33.6818 63.0798C33.4265 63.5904 33.0254 64.028 32.5513 64.3198C32.0772 64.6115 31.4937 64.7574 30.8737 64.7574C30.2537 64.7574 29.6702 64.6115 29.1961 64.3198C28.722 64.028 28.3208 63.6269 28.0655 63.0798C27.8102 62.5692 27.6644 61.9493 27.6644 61.2199V58.3388C27.6644 57.6459 27.8102 57.0259 28.0655 56.4789C28.3208 55.9318 28.722 55.5307 29.1961 55.2389C29.6702 54.9471 30.2537 54.8013 30.8737 54.8013C31.4937 54.8013 32.0772 54.9471 32.5513 55.2389C33.0254 55.5307 33.4265 55.9683 33.6818 56.4789ZM30.8737 62.4963C31.1654 62.4963 31.3842 62.3869 31.5666 62.1681C31.7489 61.9493 31.8219 61.621 31.8219 61.2563V58.3753C31.8219 57.9741 31.7489 57.6824 31.5666 57.4635C31.3842 57.2447 31.1654 57.0988 30.8737 57.0988C30.5819 57.0988 30.3631 57.2082 30.1808 57.4635C29.9984 57.6824 29.9255 58.0106 29.9255 58.3753V61.2563C29.9255 61.6575 29.9984 61.9493 30.1808 62.1681C30.3631 62.3869 30.5819 62.4963 30.8737 62.4963Z" fill="#D9B04D"/>
<path d="M32.0559 8.96029C33.4823 11.7764 34.1771 15.0679 34.1771 18.8349V32.5496C34.1771 36.2801 33.4823 39.5716 32.0559 42.4243C30.6296 45.2403 28.6181 47.4713 26.0214 49.0439C23.4248 50.6165 20.4258 51.4211 17.0612 51.4211H0.822906V0H17.0612C20.4258 0 23.4248 0.804598 26.0214 2.37722C28.6181 3.94984 30.6296 6.1442 32.0559 8.96029ZM25.1437 3.84013C22.8031 2.41379 20.1333 1.71891 17.0612 1.71891H2.54182V44.5089H17.0612C20.1698 44.5089 22.6568 43.4117 24.522 41.2174C26.3872 39.023 27.3381 36.1338 27.3381 32.5131V18.7983C27.3381 15.1776 26.3872 12.2884 24.522 10.094C22.6568 7.89969 20.1698 6.80251 17.0612 6.80251H8.83231L12.3067 10.2403H17.0246C19.0726 10.2403 20.7184 11.0084 21.9985 12.6176C23.2419 14.1902 23.9002 16.2748 23.9002 18.7983V32.5131C23.9002 35.0732 23.2785 37.1212 21.9985 38.6938C20.755 40.2665 19.0726 41.0711 17.0246 41.0711H5.94307V5.12017H17.0246C20.6453 5.12017 23.5345 6.36364 25.7289 8.88715C27.9232 11.4107 29.0204 14.7022 29.0204 18.8349V32.5496C29.0204 36.1703 28.1061 39.2424 26.2775 41.8025L28.8741 44.2163C31.2513 41.0345 32.4217 37.1578 32.4217 32.5862V18.8715C32.4217 15.5068 31.7999 12.5078 30.5199 9.91118C29.2764 7.24138 27.4478 5.26646 25.1437 3.84013ZM25.1437 43.0094C22.9859 45.1672 20.3161 46.2278 17.0612 46.2278H2.54182V49.6656H17.0612C21.2304 49.6656 24.778 48.2759 27.7404 45.5695L25.1437 43.0094ZM11.0998 11.6301L7.66199 8.08255V39.3887H11.0998V11.6301ZM22.1813 32.5496V18.8349C22.1813 16.7868 21.7059 15.1411 20.7916 13.861C19.8407 12.6176 18.5972 11.9958 17.0612 11.9958H12.8187V39.3887H17.0612C18.5972 39.3887 19.8772 38.767 20.7916 37.5235C21.7059 36.2435 22.1813 34.5977 22.1813 32.5496Z" fill="#D9B04D"/>
</svg>
