<svg width="27" height="40" viewBox="0 0 27 40" fill="none" xmlns="http://www.w3.org/2000/svg">
<path d="M24.8362 6.86926C25.9296 9.02816 26.4624 11.5516 26.4624 14.4395V24.9536C26.4624 27.8135 25.9296 30.3369 24.8362 32.5238C23.7427 34.6827 22.2006 36.393 20.2099 37.5987C18.2193 38.8043 15.9202 39.4211 13.3407 39.4211H0.891907V0H13.3407C15.9202 0 18.2193 0.616831 20.2099 1.82246C22.2006 3.02808 23.7427 4.71035 24.8362 6.86926ZM19.537 2.94397C17.7426 1.85049 15.6959 1.31778 13.3407 1.31778H2.20968V34.122H13.3407C15.7239 34.122 17.6305 33.2808 19.0604 31.5986C20.4903 29.9163 21.2193 27.7013 21.2193 24.9256V14.4114C21.2193 11.6357 20.4903 9.42069 19.0604 7.73843C17.6305 6.05616 15.7239 5.21503 13.3407 5.21503H7.03218L9.69577 7.85058H13.3126C14.8828 7.85058 16.1445 8.43937 17.1258 9.67303C18.0791 10.8787 18.5837 12.4768 18.5837 14.4114V24.9256C18.5837 26.8882 18.1071 28.4583 17.1258 29.664C16.1725 30.8696 14.8828 31.4864 13.3126 31.4864H4.8172V3.92529H13.3126C16.0884 3.92529 18.3034 4.87857 19.9856 6.81318C21.6679 8.74779 22.509 11.2712 22.509 14.4395V24.9536C22.509 27.7294 21.8081 30.0845 20.4062 32.0472L22.3969 33.8977C24.2193 31.4584 25.1165 28.4864 25.1165 24.9817V14.4675C25.1165 11.888 24.6399 9.58892 23.6586 7.59824C22.7053 5.55148 21.3034 4.03744 19.537 2.94397ZM19.537 32.9724C17.8828 34.6267 15.836 35.4398 13.3407 35.4398H2.20968V38.0753H13.3407C16.537 38.0753 19.2567 37.0099 21.5277 34.9351L19.537 32.9724ZM8.77052 8.91601L6.13497 6.19635V30.1967H8.77052V8.91601ZM17.266 24.9536V14.4395C17.266 12.8693 16.9015 11.6076 16.2005 10.6263C15.4715 9.67303 14.5183 9.19639 13.3407 9.19639H10.0883V30.1967H13.3407C14.5183 30.1967 15.4996 29.72 16.2005 28.7668C16.9015 27.7854 17.266 26.5237 17.266 24.9536Z" fill="#D9B04D"/>
</svg>
