<svg width="19" height="24" viewBox="0 0 19 24" fill="none" xmlns="http://www.w3.org/2000/svg">
<path d="M9.5 0C6.98136 0.00296595 4.56673 0.997283 2.78579 2.76484C1.00484 4.5324 0.00298842 6.92887 0 9.42857C0 17.4961 8.63636 23.5898 9.00408 23.8451C9.14951 23.9459 9.32262 24 9.5 24C9.67738 24 9.85049 23.9459 9.99592 23.8451C10.3636 23.5898 19 17.4961 19 9.42857C18.997 6.92887 17.9952 4.5324 16.2142 2.76484C14.4333 0.997283 12.0186 0.00296567 9.5 0ZM9.50063 6.00031C10.1839 6.00031 10.8518 6.20139 11.4199 6.57813C11.988 6.95487 12.4308 7.49033 12.6922 8.11682C12.9537 8.74331 13.0221 9.43269 12.8888 10.0978C12.7555 10.7628 12.4265 11.3738 11.9434 11.8532C11.4602 12.3327 10.8447 12.6593 10.1746 12.7916C9.50447 12.9239 8.80987 12.856 8.17863 12.5965C7.5474 12.337 7.00787 11.8975 6.62828 11.3337C6.24869 10.7699 6.04609 10.107 6.04609 9.42888C6.04607 8.97863 6.13542 8.53279 6.30902 8.11681C6.48262 7.70083 6.73708 7.32286 7.05787 7.00449C7.37866 6.68611 7.75949 6.43357 8.17862 6.26127C8.59775 6.08897 9.04697 6.0003 9.50063 6.00031Z" fill="#D9B04D"/>
</svg>
