<svg width="45" height="45" viewBox="0 0 45 45" fill="none" xmlns="http://www.w3.org/2000/svg">
<g filter="url(#filter0_d_85_805)">
<circle cx="22.5" cy="22.5" r="10.5" fill="white"/>
</g>
<path d="M26.7778 19H18.2222C17.8981 19 17.5872 19.1204 17.358 19.3347C17.1288 19.5491 17 19.8398 17 20.1429V25.8571C17 26.1602 17.1288 26.4509 17.358 26.6653C17.5872 26.8796 17.8981 27 18.2222 27H26.7778C27.1019 27 27.4128 26.8796 27.642 26.6653C27.8712 26.4509 28 26.1602 28 25.8571V20.1429C28 19.8398 27.8712 19.5491 27.642 19.3347C27.4128 19.1204 27.1019 19 26.7778 19ZM26.7778 20.1429V20.732L22.8123 22.9377C22.7178 22.9902 22.6099 23.018 22.5 23.018C22.3901 23.018 22.2822 22.9902 22.1877 22.9377L18.2222 20.732V20.1429H26.7778ZM18.2222 25.8571V22.0617L21.5626 23.9194C21.8461 24.0771 22.1698 24.1603 22.4997 24.1603C22.8296 24.1603 23.1533 24.0771 23.4368 23.9194L26.7778 22.0617V25.8571H18.2222Z" fill="#D9B04D"/>
<defs>
<filter id="filter0_d_85_805" x="0" y="0" width="45" height="45" filterUnits="userSpaceOnUse" color-interpolation-filters="sRGB">
<feFlood flood-opacity="0" result="BackgroundImageFix"/>
<feColorMatrix in="SourceAlpha" type="matrix" values="0 0 0 0 0 0 0 0 0 0 0 0 0 0 0 0 0 0 127 0" result="hardAlpha"/>
<feOffset/>
<feGaussianBlur stdDeviation="6"/>
<feComposite in2="hardAlpha" operator="out"/>
<feColorMatrix type="matrix" values="0 0 0 0 0.100208 0 0 0 0 0.246903 0 0 0 0 0.4625 0 0 0 0.25 0"/>
<feBlend mode="normal" in2="BackgroundImageFix" result="effect1_dropShadow_85_805"/>
<feBlend mode="normal" in="SourceGraphic" in2="effect1_dropShadow_85_805" result="shape"/>
</filter>
</defs>
</svg>
