<svg width="33" height="10" viewBox="0 0 33 10" fill="none" xmlns="http://www.w3.org/2000/svg">
<path d="M1.54898 3.2883C0.817007 3.9773 0.817007 5.27128 1.54898 5.96028C2.43669 6.78371 3.6203 6.24596 4.00964 6.01069C5.38014 5.13684 6.33015 4.63269 6.33015 4.63269C6.33015 4.63269 5.38014 4.12854 4.00964 3.25469C3.60472 3.00262 2.42111 2.46486 1.54898 3.2883Z" stroke="#D9B04D" stroke-miterlimit="10" stroke-linecap="round" stroke-linejoin="round"/>
<path d="M29.286 2.01123C29.286 3.45645 28.1958 4.61598 26.8721 4.61598C28.2114 4.61598 29.286 5.77552 29.286 7.22073C29.286 5.77552 30.3606 4.61598 31.7 4.61598C30.3606 4.63279 29.286 3.45645 29.286 2.01123Z" stroke="#D9B04D" stroke-miterlimit="10" stroke-linecap="round" stroke-linejoin="round"/>
<path d="M18.1665 0.515625C18.1665 2.78428 14.2419 4.63281 9.39844 4.63281C14.2419 4.63281 18.1665 6.48135 18.1665 8.75C18.1665 6.48135 22.0911 4.63281 26.9346 4.63281C22.0911 4.61601 18.1665 2.78428 18.1665 0.515625Z" stroke="#D9B04D" stroke-miterlimit="10" stroke-linecap="round" stroke-linejoin="round"/>
<path d="M6.33008 4.63281H9.39812" stroke="#D9B04D" stroke-miterlimit="10" stroke-linecap="round" stroke-linejoin="round"/>
</svg>
