<svg width="123" height="33" viewBox="0 0 123 33" fill="none" xmlns="http://www.w3.org/2000/svg">
<path d="M3.16596 11.4388C0.278012 14.0327 0.278012 18.9041 3.16596 21.498C6.66837 24.598 11.3382 22.5735 12.8744 21.6878C18.2816 18.398 22.0298 16.5 22.0298 16.5C22.0298 16.5 18.2816 14.6021 12.8744 11.3123C11.2768 10.3633 6.60693 8.3388 3.16596 11.4388Z" stroke="#D9B04D" stroke-miterlimit="10" stroke-linecap="round" stroke-linejoin="round"/>
<path d="M112.601 6.63049C112.601 12.0713 108.3 16.4366 103.077 16.4366C108.361 16.4366 112.601 20.8019 112.601 26.2427C112.601 20.8019 116.841 16.4366 122.125 16.4366C116.841 16.4999 112.601 12.0713 112.601 6.63049Z" stroke="#D9B04D" stroke-miterlimit="10" stroke-linecap="round" stroke-linejoin="round"/>
<path d="M68.7286 1C68.7286 9.54082 53.2443 16.5 34.1346 16.5C53.2443 16.5 68.7286 23.4592 68.7286 32C68.7286 23.4592 84.213 16.5 103.323 16.5C84.213 16.4367 68.7286 9.54082 68.7286 1Z" stroke="#D9B04D" stroke-miterlimit="10" stroke-linecap="round" stroke-linejoin="round"/>
<path d="M22.0298 16.5H34.1346" stroke="#D9B04D" stroke-miterlimit="10" stroke-linecap="round" stroke-linejoin="round"/>
</svg>
