<svg width="45" height="45" viewBox="0 0 45 45" fill="none" xmlns="http://www.w3.org/2000/svg">
<g filter="url(#filter0_d_85_812)">
<circle cx="22.5" cy="22.5" r="10.5" fill="white"/>
</g>
<path d="M22.5 17C21.307 17.0015 20.1632 17.4986 19.3196 18.3824C18.476 19.2662 18.0014 20.4644 18 21.7143C18 25.748 22.0909 28.7949 22.2651 28.9226C22.334 28.973 22.416 29 22.5 29C22.584 29 22.666 28.973 22.7349 28.9226C22.9091 28.7949 27 25.748 27 21.7143C26.9986 20.4644 26.524 19.2662 25.6804 18.3824C24.8368 17.4986 23.693 17.0015 22.5 17ZM22.5003 20.0002C22.8239 20.0002 23.1403 20.1007 23.4094 20.2891C23.6785 20.4774 23.8883 20.7452 24.0121 21.0584C24.136 21.3717 24.1684 21.7163 24.1052 22.0489C24.0421 22.3814 23.8862 22.6869 23.6574 22.9266C23.4285 23.1664 23.137 23.3296 22.8195 23.3958C22.5021 23.4619 22.1731 23.428 21.8741 23.2982C21.5751 23.1685 21.3195 22.9488 21.1397 22.6668C20.9599 22.3849 20.8639 22.0535 20.8639 21.7144C20.8639 21.4893 20.9063 21.2664 20.9885 21.0584C21.0707 20.8504 21.1913 20.6614 21.3432 20.5022C21.4952 20.3431 21.6755 20.2168 21.8741 20.1306C22.0726 20.0445 22.2854 20.0001 22.5003 20.0002Z" fill="#D9B04D"/>
<defs>
<filter id="filter0_d_85_812" x="0" y="0" width="45" height="45" filterUnits="userSpaceOnUse" color-interpolation-filters="sRGB">
<feFlood flood-opacity="0" result="BackgroundImageFix"/>
<feColorMatrix in="SourceAlpha" type="matrix" values="0 0 0 0 0 0 0 0 0 0 0 0 0 0 0 0 0 0 127 0" result="hardAlpha"/>
<feOffset/>
<feGaussianBlur stdDeviation="6"/>
<feComposite in2="hardAlpha" operator="out"/>
<feColorMatrix type="matrix" values="0 0 0 0 0.100208 0 0 0 0 0.246903 0 0 0 0 0.4625 0 0 0 0.25 0"/>
<feBlend mode="normal" in2="BackgroundImageFix" result="effect1_dropShadow_85_812"/>
<feBlend mode="normal" in="SourceGraphic" in2="effect1_dropShadow_85_812" result="shape"/>
</filter>
</defs>
</svg>
