<svg width="45" height="45" viewBox="0 0 45 45" fill="none" xmlns="http://www.w3.org/2000/svg">
<g filter="url(#filter0_d_85_806)">
<circle cx="22.5" cy="22.5" r="10.5" fill="white"/>
</g>
<path d="M21.6772 21.8437L22.4094 21.1716C22.8196 20.7951 22.9603 20.2071 22.765 19.6856L22.4521 18.8498C22.2097 18.2023 21.5058 17.8553 20.8451 18.0575C19.6737 18.416 18.7733 19.5054 19.0505 20.7995C19.2328 21.6506 19.5813 22.7188 20.2423 23.856C20.9045 24.995 21.6607 25.8371 22.3089 26.4277C23.288 27.3197 24.6874 27.0966 25.5878 26.2567C26.0886 25.7893 26.1398 25.0127 25.7045 24.4836L25.1308 23.7862C24.7771 23.3562 24.1979 23.1841 23.667 23.3513L22.7192 23.6498C22.6828 23.6123 22.6406 23.5675 22.5945 23.5161C22.4388 23.3424 22.244 23.0989 22.0802 22.815C21.9164 22.531 21.8031 22.2405 21.7306 22.0186C21.7091 21.953 21.6914 21.894 21.6772 21.8437Z" fill="#D9B04D"/>
<defs>
<filter id="filter0_d_85_806" x="0" y="0" width="45" height="45" filterUnits="userSpaceOnUse" color-interpolation-filters="sRGB">
<feFlood flood-opacity="0" result="BackgroundImageFix"/>
<feColorMatrix in="SourceAlpha" type="matrix" values="0 0 0 0 0 0 0 0 0 0 0 0 0 0 0 0 0 0 127 0" result="hardAlpha"/>
<feOffset/>
<feGaussianBlur stdDeviation="6"/>
<feComposite in2="hardAlpha" operator="out"/>
<feColorMatrix type="matrix" values="0 0 0 0 0.100208 0 0 0 0 0.246903 0 0 0 0 0.4625 0 0 0 0.25 0"/>
<feBlend mode="normal" in2="BackgroundImageFix" result="effect1_dropShadow_85_806"/>
<feBlend mode="normal" in="SourceGraphic" in2="effect1_dropShadow_85_806" result="shape"/>
</filter>
</defs>
</svg>
