<svg width="33" height="11" viewBox="0 0 33 11" fill="none" xmlns="http://www.w3.org/2000/svg">
<path d="M31.451 6.94485C32.183 6.24782 32.183 4.93876 31.451 4.24173C30.5633 3.40869 29.3797 3.95272 28.9904 4.19073C27.6199 5.07477 26.6699 5.58479 26.6699 5.58479C26.6699 5.58479 27.6199 6.09481 28.9904 6.97885C29.3953 7.23386 30.5789 7.77788 31.451 6.94485Z" stroke="#D9B04D" stroke-miterlimit="10" stroke-linecap="round" stroke-linejoin="round"/>
<path d="M3.71398 8.2373C3.71398 6.77524 4.80415 5.60219 6.12793 5.60219C4.78858 5.60219 3.71398 4.42914 3.71398 2.96708C3.71398 4.42914 2.63939 5.60219 1.30004 5.60219C2.63939 5.58519 3.71398 6.77524 3.71398 8.2373Z" stroke="#D9B04D" stroke-miterlimit="10" stroke-linecap="round" stroke-linejoin="round"/>
<path d="M14.8335 9.75C14.8335 7.4549 18.7581 5.58482 23.6016 5.58482C18.7581 5.58482 14.8335 3.71474 14.8335 1.41965C14.8335 3.71474 10.9089 5.58482 6.06542 5.58482C10.9089 5.60182 14.8335 7.4549 14.8335 9.75Z" stroke="#D9B04D" stroke-miterlimit="10" stroke-linecap="round" stroke-linejoin="round"/>
<path d="M26.6699 5.58496L23.6019 5.58496" stroke="#D9B04D" stroke-miterlimit="10" stroke-linecap="round" stroke-linejoin="round"/>
</svg>
