<svg width="123" height="33" viewBox="0 0 123 33" fill="none" xmlns="http://www.w3.org/2000/svg">
<path d="M119.959 21.4395C122.847 18.8154 122.847 13.8871 119.959 11.263C116.457 8.12689 111.787 10.175 110.251 11.071C104.843 14.3992 101.095 16.3192 101.095 16.3192C101.095 16.3192 104.843 18.2393 110.251 21.5675C111.848 22.5275 116.518 24.5756 119.959 21.4395Z" stroke="#D9B04D" stroke-miterlimit="10" stroke-linecap="round" stroke-linejoin="round"/>
<path d="M10.5241 26.3038C10.5241 20.7996 14.8253 16.3834 20.0482 16.3834C14.7639 16.3834 10.5241 11.9672 10.5241 6.46299C10.5241 11.9672 6.28436 16.3834 1.00003 16.3834C6.28436 16.3194 10.5241 20.7996 10.5241 26.3038Z" stroke="#D9B04D" stroke-miterlimit="10" stroke-linecap="round" stroke-linejoin="round"/>
<path d="M54.3964 32C54.3964 23.3596 69.8807 16.3193 88.9904 16.3193C69.8807 16.3193 54.3964 9.27904 54.3964 0.638672C54.3964 9.27904 38.912 16.3193 19.8024 16.3193C38.912 16.3833 54.3964 23.3596 54.3964 32Z" stroke="#D9B04D" stroke-miterlimit="10" stroke-linecap="round" stroke-linejoin="round"/>
<path d="M101.095 16.3193L88.9903 16.3193" stroke="#D9B04D" stroke-miterlimit="10" stroke-linecap="round" stroke-linejoin="round"/>
</svg>
