<svg width="288" height="64" viewBox="0 0 288 64" fill="none" xmlns="http://www.w3.org/2000/svg">
<path d="M49.3185 0.5H239.715C250.288 0.5 260.419 4.73866 267.842 12.2675L287.298 32L267.842 51.7325C260.419 59.2613 250.288 63.5 239.715 63.5H49.3185C39.0877 63.5 29.2559 59.5304 21.893 52.427L0.720134 32L21.893 11.573C29.2559 4.46958 39.0877 0.5 49.3185 0.5Z" fill="#212121" stroke="#D9B04D"/>
<path d="M76.0979 20.456C77.9699 19.16 80.1899 18.512 82.7579 18.512C86.1659 18.512 89.2019 19.484 91.8659 21.428V25.352C90.5459 24.344 89.0819 23.528 87.4739 22.904C85.8659 22.28 84.2939 21.968 82.7579 21.968C81.2219 21.968 79.8659 22.304 78.6899 22.976C77.5379 23.624 76.9619 24.524 76.9619 25.676C76.9619 26.084 77.0339 26.456 77.1779 26.792C77.3459 27.104 77.6339 27.392 78.0419 27.656C78.4499 27.92 78.8099 28.136 79.1219 28.304C79.4339 28.472 79.9619 28.664 80.7059 28.88C81.4739 29.096 82.0379 29.252 82.3979 29.348C82.7819 29.444 83.4539 29.6 84.4139 29.816C87.4379 30.536 89.5739 31.52 90.8219 32.768C92.0699 34.016 92.6939 35.492 92.6939 37.196C92.6939 37.22 92.6939 37.244 92.6939 37.268C92.6939 39.524 91.7819 41.264 89.9579 42.488C88.1339 43.688 85.9859 44.288 83.5139 44.288C83.4179 44.288 83.3219 44.288 83.2259 44.288C79.5299 44.264 76.3139 43.004 73.5779 40.508V36.584C76.6739 39.392 79.9619 40.796 83.4419 40.796C85.0019 40.796 86.3219 40.496 87.4019 39.896C88.4819 39.272 89.0219 38.384 89.0219 37.232C89.0219 36.2 88.4819 35.336 87.4019 34.64C86.3219 33.92 84.4739 33.248 81.8579 32.624C78.9059 31.952 76.7339 31.076 75.3419 29.996C73.9739 28.892 73.2899 27.452 73.2899 25.676C73.2899 23.516 74.2259 21.776 76.0979 20.456ZM114.913 18.8V29.708H128.413V18.8H132.157V44H128.413V33.056H114.913V44H111.205V18.8H114.913ZM154.448 22.292C156.92 19.796 159.932 18.548 163.484 18.548C166.988 18.548 169.976 19.808 172.448 22.328C174.944 24.824 176.204 27.86 176.228 31.436C176.228 34.988 174.98 38.024 172.484 40.544C170.012 43.04 167.012 44.288 163.484 44.288C159.932 44.288 156.92 43.04 154.448 40.544C151.976 38.024 150.74 34.988 150.74 31.436C150.74 27.86 151.976 24.812 154.448 22.292ZM154.448 31.436C154.448 34.028 155.312 36.236 157.04 38.06C158.768 39.884 160.916 40.796 163.484 40.796C166.052 40.796 168.188 39.884 169.892 38.06C171.62 36.236 172.484 34.028 172.484 31.436C172.484 28.82 171.62 26.6 169.892 24.776C168.164 22.928 166.028 22.004 163.484 22.004C160.916 22.004 158.768 22.928 157.04 24.776C155.312 26.6 154.448 28.82 154.448 31.436ZM194.636 44V18.8H205.688C208.112 18.8 210.092 19.604 211.628 21.212C213.164 22.82 213.932 24.776 213.932 27.08C213.932 29.432 213.164 31.4 211.628 32.984C210.092 34.568 208.112 35.36 205.688 35.36H198.38V44H194.636ZM198.38 32.012H205.472C206.984 32.012 208.172 31.532 209.036 30.572C209.9 29.612 210.332 28.424 210.332 27.008C210.332 25.592 209.9 24.44 209.036 23.552C208.172 22.64 206.984 22.184 205.472 22.184H198.38V32.012Z" fill="#D9B04D"/>
</svg>
