<svg width="19" height="19" viewBox="0 0 19 19" fill="none" xmlns="http://www.w3.org/2000/svg">
<path fill-rule="evenodd" clip-rule="evenodd" d="M1.75308 0.216956C1.41251 -0.123618 0.792547 -0.0558325 0.368357 0.368358C-0.055833 0.792548 -0.123617 1.41251 0.216956 1.75308L7.6711 9.20723L0.217022 16.6613C-0.123551 17.0019 -0.0557669 17.6218 0.368423 18.046C0.792613 18.4702 1.41258 18.538 1.75315 18.1974L9.20723 10.7434L16.6613 18.1974C17.0019 18.538 17.6218 18.4702 18.046 18.046C18.4702 17.6218 18.538 17.0019 18.1974 16.6613L10.7434 9.20723L18.1975 1.75309C18.5381 1.41252 18.4703 0.792551 18.0461 0.368361C17.6219 -0.0558288 17.0019 -0.123613 16.6614 0.216961L9.20723 7.6711L1.75308 0.216956Z" fill="#D9B04D"/>
</svg>
